<mxfile host="app.diagrams.net" agent="Mozilla/5.0 (Windows NT 10.0; Win64; x64; rv:131.0) Gecko/20100101 Firefox/131.0" version="24.8.3">
  <diagram name="Sivu-1" id="LoDhr9hqAamY20WkS82y">
    <mxGraphModel dx="2074" dy="1095" grid="1" gridSize="10" guides="1" tooltips="1" connect="1" arrows="1" fold="1" page="1" pageScale="1" pageWidth="827" pageHeight="1169" math="0" shadow="0">
      <root>
        <mxCell id="0" />
        <mxCell id="1" parent="0" />
        <mxCell id="S9cgAQlEjRBFlRxogQdh-1" value="" style="ellipse;whiteSpace=wrap;html=1;" vertex="1" parent="1">
          <mxGeometry x="319" y="50" width="120" height="80" as="geometry" />
        </mxCell>
        <mxCell id="S9cgAQlEjRBFlRxogQdh-2" value="Aloitus HTML" style="text;html=1;align=center;verticalAlign=middle;whiteSpace=wrap;rounded=0;" vertex="1" parent="1">
          <mxGeometry x="351.5" y="75" width="60" height="30" as="geometry" />
        </mxCell>
        <mxCell id="S9cgAQlEjRBFlRxogQdh-3" value="" style="shape=parallelogram;perimeter=parallelogramPerimeter;whiteSpace=wrap;html=1;fixedSize=1;" vertex="1" parent="1">
          <mxGeometry x="306.5" y="180" width="150" height="70" as="geometry" />
        </mxCell>
        <mxCell id="S9cgAQlEjRBFlRxogQdh-4" value="Kysy käyttäjän ikää" style="text;html=1;align=center;verticalAlign=middle;whiteSpace=wrap;rounded=0;" vertex="1" parent="1">
          <mxGeometry x="354" y="200" width="60" height="30" as="geometry" />
        </mxCell>
        <mxCell id="S9cgAQlEjRBFlRxogQdh-5" value="&lt;div&gt;Luo &lt;br&gt;&lt;/div&gt;&lt;div&gt;muuttuja&lt;br&gt;&lt;/div&gt;" style="rounded=0;whiteSpace=wrap;html=1;" vertex="1" parent="1">
          <mxGeometry x="310" y="290" width="135" height="60" as="geometry" />
        </mxCell>
        <mxCell id="S9cgAQlEjRBFlRxogQdh-6" value="" style="rounded=0;whiteSpace=wrap;html=1;" vertex="1" parent="1">
          <mxGeometry x="316" y="395" width="123" height="80" as="geometry" />
        </mxCell>
        <mxCell id="S9cgAQlEjRBFlRxogQdh-7" value="Lue muuttujaan käyttäjän luku" style="text;html=1;align=center;verticalAlign=middle;whiteSpace=wrap;rounded=0;" vertex="1" parent="1">
          <mxGeometry x="347.5" y="420" width="60" height="30" as="geometry" />
        </mxCell>
        <mxCell id="S9cgAQlEjRBFlRxogQdh-9" value="" style="rhombus;whiteSpace=wrap;html=1;" vertex="1" parent="1">
          <mxGeometry x="176.5" y="570" width="130" height="120" as="geometry" />
        </mxCell>
        <mxCell id="S9cgAQlEjRBFlRxogQdh-11" value="&lt;div&gt;Jos muuttuja on &lt;br&gt;&lt;/div&gt;&lt;div&gt;&amp;lt; 16&lt;br&gt;&lt;/div&gt;" style="text;html=1;align=center;verticalAlign=middle;whiteSpace=wrap;rounded=0;" vertex="1" parent="1">
          <mxGeometry x="191.5" y="593.75" width="100" height="72.5" as="geometry" />
        </mxCell>
        <mxCell id="S9cgAQlEjRBFlRxogQdh-12" value="" style="rhombus;whiteSpace=wrap;html=1;" vertex="1" parent="1">
          <mxGeometry x="316" y="570" width="130" height="120" as="geometry" />
        </mxCell>
        <mxCell id="S9cgAQlEjRBFlRxogQdh-13" value="Jos muuttuja on &amp;lt; 18" style="text;html=1;align=center;verticalAlign=middle;whiteSpace=wrap;rounded=0;" vertex="1" parent="1">
          <mxGeometry x="340" y="615" width="80" height="30" as="geometry" />
        </mxCell>
        <mxCell id="S9cgAQlEjRBFlRxogQdh-14" style="edgeStyle=orthogonalEdgeStyle;rounded=0;orthogonalLoop=1;jettySize=auto;html=1;exitX=0.5;exitY=1;exitDx=0;exitDy=0;" edge="1" parent="1" source="S9cgAQlEjRBFlRxogQdh-12" target="S9cgAQlEjRBFlRxogQdh-12">
          <mxGeometry relative="1" as="geometry" />
        </mxCell>
        <mxCell id="S9cgAQlEjRBFlRxogQdh-15" value="" style="rhombus;whiteSpace=wrap;html=1;" vertex="1" parent="1">
          <mxGeometry x="470" y="570" width="130" height="120" as="geometry" />
        </mxCell>
        <mxCell id="S9cgAQlEjRBFlRxogQdh-16" value="Jos muuttuja on &amp;gt;=18" style="text;html=1;align=center;verticalAlign=middle;whiteSpace=wrap;rounded=0;" vertex="1" parent="1">
          <mxGeometry x="490" y="593.75" width="90" height="80" as="geometry" />
        </mxCell>
        <mxCell id="S9cgAQlEjRBFlRxogQdh-26" value="" style="shape=parallelogram;perimeter=parallelogramPerimeter;whiteSpace=wrap;html=1;fixedSize=1;" vertex="1" parent="1">
          <mxGeometry x="130" y="730" width="160" height="70" as="geometry" />
        </mxCell>
        <mxCell id="S9cgAQlEjRBFlRxogQdh-27" value="" style="shape=parallelogram;perimeter=parallelogramPerimeter;whiteSpace=wrap;html=1;fixedSize=1;" vertex="1" parent="1">
          <mxGeometry x="306.5" y="730" width="163.5" height="70" as="geometry" />
        </mxCell>
        <mxCell id="S9cgAQlEjRBFlRxogQdh-28" value="" style="shape=parallelogram;perimeter=parallelogramPerimeter;whiteSpace=wrap;html=1;fixedSize=1;" vertex="1" parent="1">
          <mxGeometry x="490" y="730" width="160" height="70" as="geometry" />
        </mxCell>
        <mxCell id="S9cgAQlEjRBFlRxogQdh-29" value="Tulosta &quot;Voit ajaa polkupyörää&quot;" style="text;html=1;align=center;verticalAlign=middle;whiteSpace=wrap;rounded=0;" vertex="1" parent="1">
          <mxGeometry x="180" y="750" width="60" height="30" as="geometry" />
        </mxCell>
        <mxCell id="S9cgAQlEjRBFlRxogQdh-32" value="Tulosta &quot;Voit ajaa mopoa&quot;" style="text;html=1;align=center;verticalAlign=middle;whiteSpace=wrap;rounded=0;" vertex="1" parent="1">
          <mxGeometry x="360" y="750" width="60" height="30" as="geometry" />
        </mxCell>
        <mxCell id="S9cgAQlEjRBFlRxogQdh-33" value="Tulosta &quot;Voit ajaa autoa&quot;" style="text;html=1;align=center;verticalAlign=middle;whiteSpace=wrap;rounded=0;" vertex="1" parent="1">
          <mxGeometry x="540" y="750" width="60" height="30" as="geometry" />
        </mxCell>
        <mxCell id="S9cgAQlEjRBFlRxogQdh-38" value="" style="ellipse;whiteSpace=wrap;html=1;" vertex="1" parent="1">
          <mxGeometry x="326" y="850" width="120" height="80" as="geometry" />
        </mxCell>
        <mxCell id="S9cgAQlEjRBFlRxogQdh-39" value="The end" style="text;html=1;align=center;verticalAlign=middle;whiteSpace=wrap;rounded=0;" vertex="1" parent="1">
          <mxGeometry x="356" y="875" width="60" height="30" as="geometry" />
        </mxCell>
        <mxCell id="S9cgAQlEjRBFlRxogQdh-41" value="" style="edgeStyle=none;orthogonalLoop=1;jettySize=auto;html=1;rounded=0;exitX=0.5;exitY=1;exitDx=0;exitDy=0;" edge="1" parent="1" source="S9cgAQlEjRBFlRxogQdh-3">
          <mxGeometry width="100" relative="1" as="geometry">
            <mxPoint x="390" y="260" as="sourcePoint" />
            <mxPoint x="382" y="289" as="targetPoint" />
            <Array as="points" />
          </mxGeometry>
        </mxCell>
        <mxCell id="S9cgAQlEjRBFlRxogQdh-44" value="" style="edgeStyle=none;orthogonalLoop=1;jettySize=auto;html=1;rounded=0;exitX=0.5;exitY=1;exitDx=0;exitDy=0;entryX=0.5;entryY=0;entryDx=0;entryDy=0;" edge="1" parent="1" source="S9cgAQlEjRBFlRxogQdh-5" target="S9cgAQlEjRBFlRxogQdh-6">
          <mxGeometry width="100" relative="1" as="geometry">
            <mxPoint x="320" y="370" as="sourcePoint" />
            <mxPoint x="420" y="370" as="targetPoint" />
            <Array as="points" />
          </mxGeometry>
        </mxCell>
        <mxCell id="S9cgAQlEjRBFlRxogQdh-48" value="" style="edgeStyle=none;orthogonalLoop=1;jettySize=auto;html=1;rounded=0;exitX=0.45;exitY=1.025;exitDx=0;exitDy=0;exitPerimeter=0;entryX=0.45;entryY=-0.043;entryDx=0;entryDy=0;entryPerimeter=0;" edge="1" parent="1" source="S9cgAQlEjRBFlRxogQdh-1" target="S9cgAQlEjRBFlRxogQdh-3">
          <mxGeometry width="100" relative="1" as="geometry">
            <mxPoint x="310" y="150" as="sourcePoint" />
            <mxPoint x="410" y="150" as="targetPoint" />
            <Array as="points" />
          </mxGeometry>
        </mxCell>
        <mxCell id="S9cgAQlEjRBFlRxogQdh-50" value="" style="edgeStyle=segmentEdgeStyle;endArrow=classic;html=1;curved=0;rounded=0;endSize=8;startSize=8;sourcePerimeterSpacing=0;targetPerimeterSpacing=0;entryX=0.5;entryY=0;entryDx=0;entryDy=0;" edge="1" parent="1" target="S9cgAQlEjRBFlRxogQdh-9">
          <mxGeometry width="100" relative="1" as="geometry">
            <mxPoint x="332" y="480" as="sourcePoint" />
            <mxPoint x="250" y="560" as="targetPoint" />
            <Array as="points">
              <mxPoint x="330" y="480" />
              <mxPoint x="330" y="510" />
              <mxPoint x="240" y="510" />
              <mxPoint x="240" y="560" />
              <mxPoint x="242" y="560" />
            </Array>
          </mxGeometry>
        </mxCell>
        <mxCell id="S9cgAQlEjRBFlRxogQdh-52" value="" style="edgeStyle=none;orthogonalLoop=1;jettySize=auto;html=1;rounded=0;entryX=0.5;entryY=0;entryDx=0;entryDy=0;" edge="1" parent="1" target="S9cgAQlEjRBFlRxogQdh-12">
          <mxGeometry width="100" relative="1" as="geometry">
            <mxPoint x="380" y="480" as="sourcePoint" />
            <mxPoint x="380" y="550" as="targetPoint" />
            <Array as="points" />
          </mxGeometry>
        </mxCell>
        <mxCell id="S9cgAQlEjRBFlRxogQdh-56" value="" style="edgeStyle=segmentEdgeStyle;endArrow=classic;html=1;curved=0;rounded=0;endSize=8;startSize=8;sourcePerimeterSpacing=0;targetPerimeterSpacing=0;entryX=0.5;entryY=0;entryDx=0;entryDy=0;" edge="1" parent="1" target="S9cgAQlEjRBFlRxogQdh-15">
          <mxGeometry width="100" relative="1" as="geometry">
            <mxPoint x="430" y="480" as="sourcePoint" />
            <mxPoint x="530" y="550" as="targetPoint" />
            <Array as="points">
              <mxPoint x="430" y="510" />
              <mxPoint x="535" y="510" />
            </Array>
          </mxGeometry>
        </mxCell>
        <mxCell id="S9cgAQlEjRBFlRxogQdh-71" value="" style="edgeStyle=none;orthogonalLoop=1;jettySize=auto;html=1;rounded=0;exitX=0.5;exitY=1;exitDx=0;exitDy=0;entryX=0.688;entryY=0.029;entryDx=0;entryDy=0;entryPerimeter=0;" edge="1" parent="1" source="S9cgAQlEjRBFlRxogQdh-9" target="S9cgAQlEjRBFlRxogQdh-26">
          <mxGeometry width="100" relative="1" as="geometry">
            <mxPoint x="180" y="700" as="sourcePoint" />
            <mxPoint x="240" y="720" as="targetPoint" />
            <Array as="points" />
          </mxGeometry>
        </mxCell>
        <mxCell id="S9cgAQlEjRBFlRxogQdh-73" value="" style="edgeStyle=none;orthogonalLoop=1;jettySize=auto;html=1;rounded=0;entryX=0.45;entryY=0;entryDx=0;entryDy=0;entryPerimeter=0;" edge="1" parent="1" target="S9cgAQlEjRBFlRxogQdh-27">
          <mxGeometry width="100" relative="1" as="geometry">
            <mxPoint x="380" y="690" as="sourcePoint" />
            <mxPoint x="430" y="710" as="targetPoint" />
            <Array as="points" />
          </mxGeometry>
        </mxCell>
        <mxCell id="S9cgAQlEjRBFlRxogQdh-75" value="" style="edgeStyle=none;orthogonalLoop=1;jettySize=auto;html=1;rounded=0;exitX=0.5;exitY=1;exitDx=0;exitDy=0;" edge="1" parent="1" source="S9cgAQlEjRBFlRxogQdh-15">
          <mxGeometry width="100" relative="1" as="geometry">
            <mxPoint x="500" y="700" as="sourcePoint" />
            <mxPoint x="535" y="730" as="targetPoint" />
            <Array as="points" />
          </mxGeometry>
        </mxCell>
        <mxCell id="S9cgAQlEjRBFlRxogQdh-76" value="" style="edgeStyle=none;orthogonalLoop=1;jettySize=auto;html=1;rounded=0;" edge="1" parent="1" source="S9cgAQlEjRBFlRxogQdh-27">
          <mxGeometry width="100" relative="1" as="geometry">
            <mxPoint x="388" y="803" as="sourcePoint" />
            <mxPoint x="388" y="850" as="targetPoint" />
            <Array as="points" />
          </mxGeometry>
        </mxCell>
      </root>
    </mxGraphModel>
  </diagram>
</mxfile>
